<svg viewBox="0 0 48 48" width="48" height="48" xmlns="http://www.w3.org/2000/svg" fill="none">
  <svg x="3" y="0" width="41" height="48" viewBox="0 0 41 48">
    <path fill-rule="evenodd" clip-rule="evenodd" d="M20.5 3.47619L3 13.7201V34.2799L20.5 44.5238L38 34.2799V13.7201L20.5 3.47619ZM41 12L20.5 0L0 12V36L20.5 48L41 36V12Z" fill="#E1E1E1"/>
  </svg>
  <svg x="3" y="0" width="41" height="48" viewBox="0 0 41 48">
    <path fill-rule="evenodd" clip-rule="evenodd" d="M41 12L20.5 0L0 12V36L20.5 48L41 36V12ZM20.5 3.47619L4.41031 12.8945L20.4999 21.7862L36.5896 12.8945L20.5 3.47619ZM3 34.2799V15.5428L19 24.3849V43.6458L3 34.2799ZM22 43.6458L38 34.2799V15.5427L22 24.3848V43.6458Z" fill="#1D1D1D"/>
  </svg>
  <svg x="9" y="24" width="9" height="14" viewBox="0 0 9 14">
    <path d="M9 5V14L0 9V0L9 5Z" fill="#FFCC05"/>
  </svg>
</svg>
