<svg viewBox="0 0 48 48" width="48" height="48" xmlns="http://www.w3.org/2000/svg" fill="none">
  <svg x="3" y="0" width="41" height="48" viewBox="0 0 41 48">
    <path fill-rule="evenodd" clip-rule="evenodd" d="M20.5 3.47619L3 13.7201V34.2799L20.5 44.5238L38 34.2799V13.7201L20.5 3.47619ZM41 12L20.5 0L0 12V36L20.5 48L41 36V12Z" fill="#E1E1E1"/>
  </svg>
  <svg x="3" y="8.5" width="41" height="39.5" viewBox="0 0 41 39.5">
    <path fill-rule="evenodd" clip-rule="evenodd" d="M41 12L20.5 0L0 12V27.5L20.5 39.5L41 27.5V12ZM20.5 3.47619L4.64331 12.7582L20.4809 21.2861L35.9381 12.5131L20.5 3.47619ZM3 25.7799V15.2806L19 23.8959V35.1458L3 25.7799ZM22 35.1458L38 25.7799V14.7923L22 23.8734V35.1458Z" fill="#1D1D1D"/>
  </svg>
  <svg x="8" y="29" width="9" height="9.5" viewBox="0 0 9 9.5">
    <path d="M9 5V9.5L0 4.5V0L9 5Z" fill="#FFCC05"/>
  </svg>
</svg>
